<svg width="18" height="20" viewBox="0 0 18 20" fill="none" xmlns="http://www.w3.org/2000/svg">
<path d="M8.5 2.5C10.7543 2.5 12.9163 3.39553 14.5104 4.98959C16.1045 6.58365 17 8.74566 17 11C17 13.2543 16.1045 15.4163 14.5104 17.0104C12.9163 18.6045 10.7543 19.5 8.5 19.5C6.24566 19.5 4.08365 18.6045 2.48959 17.0104C0.895533 15.4163 0 13.2543 0 11C0 8.74566 0.895533 6.58365 2.48959 4.98959C4.08365 3.39553 6.24566 2.5 8.5 2.5ZM8.5 5.5C8.31876 5.50001 8.14366 5.56564 8.00707 5.68477C7.87048 5.80389 7.78165 5.96845 7.757 6.148L7.75 6.25V10.75L7.757 10.852C7.7817 11.0315 7.87055 11.196 8.00714 11.3151C8.14372 11.4342 8.3188 11.4998 8.5 11.4998C8.6812 11.4998 8.85628 11.4342 8.99286 11.3151C9.12945 11.196 9.2183 11.0315 9.243 10.852L9.25 10.75V6.25L9.243 6.148C9.21835 5.96845 9.12952 5.80389 8.99293 5.68477C8.85634 5.56564 8.68124 5.50001 8.5 5.5ZM15.67 2.623L15.752 2.684L16.901 3.684C17.045 3.80867 17.1362 3.98345 17.156 4.17287C17.1758 4.36229 17.1229 4.55217 17.0079 4.70397C16.8928 4.85578 16.7244 4.95813 16.5366 4.99026C16.3489 5.0224 16.156 4.9819 15.997 4.877L15.916 4.816L14.767 3.816C14.6243 3.69107 14.5342 3.51668 14.5149 3.32797C14.4955 3.13926 14.5485 2.95025 14.6629 2.799C14.7774 2.64774 14.945 2.54549 15.1318 2.51283C15.3187 2.48018 15.511 2.51954 15.67 2.623ZM10.75 0C10.94 5.82426e-05 11.1229 0.0722446 11.2618 0.201973C11.4006 0.331701 11.4851 0.509298 11.498 0.69888C11.511 0.888462 11.4515 1.07589 11.3316 1.2233C11.2117 1.37071 11.0402 1.4671 10.852 1.493L10.75 1.5H6.25C6.05998 1.49994 5.87706 1.42776 5.73821 1.29803C5.59936 1.1683 5.51493 0.990702 5.50197 0.80112C5.48902 0.611538 5.54851 0.424108 5.66843 0.276701C5.78835 0.129294 5.95975 0.0329014 6.148 0.00699997L6.25 0H10.75Z" fill="#606060"/>
</svg>
