<svg width="16" height="10" viewBox="0 0 16 10" fill="none" xmlns="http://www.w3.org/2000/svg">
<path d="M5.33333 8.85714C5.33333 8.68665 5.40357 8.52313 5.5286 8.40257C5.65362 8.28201 5.82319 8.21429 6 8.21429H10C10.1768 8.21429 10.3464 8.28201 10.4714 8.40257C10.5964 8.52313 10.6667 8.68665 10.6667 8.85714C10.6667 9.02764 10.5964 9.19115 10.4714 9.31171C10.3464 9.43227 10.1768 9.5 10 9.5H6C5.82319 9.5 5.65362 9.43227 5.5286 9.31171C5.40357 9.19115 5.33333 9.02764 5.33333 8.85714ZM2.66667 5C2.66667 4.8295 2.7369 4.66599 2.86193 4.54543C2.98695 4.42487 3.15652 4.35714 3.33333 4.35714H12.6667C12.8435 4.35714 13.013 4.42487 13.1381 4.54543C13.2631 4.66599 13.3333 4.8295 13.3333 5C13.3333 5.1705 13.2631 5.33401 13.1381 5.45457C13.013 5.57513 12.8435 5.64286 12.6667 5.64286H3.33333C3.15652 5.64286 2.98695 5.57513 2.86193 5.45457C2.7369 5.33401 2.66667 5.1705 2.66667 5ZM0 1.14286C0 0.972361 0.070238 0.808848 0.195262 0.688289C0.320287 0.56773 0.489856 0.5 0.666667 0.5H15.3333C15.5101 0.5 15.6797 0.56773 15.8047 0.688289C15.9298 0.808848 16 0.972361 16 1.14286C16 1.31335 15.9298 1.47687 15.8047 1.59743C15.6797 1.71798 15.5101 1.78571 15.3333 1.78571H0.666667C0.489856 1.78571 0.320287 1.71798 0.195262 1.59743C0.070238 1.47687 0 1.31335 0 1.14286Z" fill="white"/>
</svg>
