<svg width="66" height="65" viewBox="0 0 66 65" fill="none" xmlns="http://www.w3.org/2000/svg">
<path fill-rule="evenodd" clip-rule="evenodd" d="M0.5 32.5C0.5 23.8805 3.9241 15.614 10.019 9.51903C16.114 3.4241 24.3805 0 33 0C41.6195 0 49.886 3.4241 55.981 9.51903C62.0759 15.614 65.5 23.8805 65.5 32.5C65.5 41.1195 62.0759 49.386 55.981 55.481C49.886 61.5759 41.6195 65 33 65C24.3805 65 16.114 61.5759 10.019 55.481C3.9241 49.386 0.5 41.1195 0.5 32.5ZM31.1453 46.41L49.8567 23.0187L46.4767 20.3147L30.5213 40.2523L19.22 30.836L16.4467 34.164L31.1453 46.4143V46.41Z" fill="#4CAF50"/>
</svg>
